Archivo Black-Regular.ufo
<glyph name="numbersign" format="1">
  <advance width="660"/>
  <unicode hex="0023"/>
  <outline>
    <contour>
      <point x="592" y="700" type="line"/>
      <point x="472" y="700" type="line"/>
      <point x="428" y="502" type="line"/>
      <point x="317" y="502" type="line"/>
      <point x="362" y="700" type="line"/>
      <point x="240" y="700" type="line"/>
      <point x="196" y="502" type="line"/>
      <point x="66" y="502" type="line"/>
      <point x="66" y="391" type="line"/>
      <point x="174" y="391" type="line"/>
      <point x="146" y="268" type="line"/>
      <point x="20" y="268" type="line"/>
      <point x="20" y="159" type="line"/>
      <point x="120" y="159" type="line"/>
      <point x="84" y="-11" type="line"/>
      <point x="204" y="-11" type="line"/>
      <point x="240" y="159" type="line"/>
      <point x="355" y="159" type="line"/>
      <point x="318" y="-11" type="line"/>
      <point x="435" y="-11" type="line"/>
      <point x="472" y="159" type="line"/>
      <point x="606" y="159" type="line"/>
      <point x="606" y="268" type="line"/>
      <point x="500" y="268" type="line"/>
      <point x="526" y="391" type="line"/>
      <point x="639" y="391" type="line"/>
      <point x="639" y="502" type="line"/>
      <point x="546" y="502" type="line"/>
    </contour>
    <contour>
      <point x="408" y="390" type="line"/>
      <point x="379" y="267" type="line"/>
      <point x="265" y="267" type="line"/>
      <point x="292" y="390" type="line"/>
    </contour>
  </outline>
</glyph>
<glyph name="quotesingle" format="1">
  <advance width="278"/>
  <unicode hex="0027"/>
  <outline>
    <contour>
      <point x="220" y="688" type="line"/>
      <point x="57" y="688" type="line"/>
      <point x="57" y="541" type="line"/>
      <point x="104" y="398" type="line"/>
      <point x="172" y="398" type="line"/>
      <point x="220" y="541" type="line"/>
    </contour>
  </outline>
</glyph>
<glyph name="parenright" format="1">
  <advance width="389"/>
  <unicode hex="0029"/>
  <outline>
    <contour>
      <point x="34" y="737" type="line"/>
      <point x="113" y="614"/>
      <point x="167" y="429"/>
      <point x="167" y="288" type="curve" smooth="yes"/>
      <point x="167" y="146"/>
      <point x="113" y="-37"/>
      <point x="34" y="-160" type="curve"/>
      <point x="154" y="-160" type="line"/>
      <point x="269" y="-37"/>
      <point x="334" y="125"/>
      <point x="334" y="288" type="curve" smooth="yes"/>
      <point x="334" y="452"/>
      <point x="269" y="614"/>
      <point x="154" y="737" type="curve"/>
    </contour>
  </outline>
</glyph>
<glyph name="greater" format="1">
  <advance width="660"/>
  <unicode hex="003E"/>
  <outline>
    <contour>
      <point x="68" y="535" type="line"/>
      <point x="68" y="392" type="line"/>
      <point x="427" y="260" type="line"/>
      <point x="68" y="129" type="line"/>
      <point x="68" y="-13" type="line"/>
      <point x="593" y="189" type="line"/>
      <point x="593" y="332" type="line"/>
    </contour>
  </outline>
</glyph>
<glyph name="N" format="1">
  <advance width="833"/>
  <unicode hex="004E"/>
  <outline>
    <contour>
      <point x="759" y="688" type="line"/>
      <point x="556" y="688" type="line"/>
      <point x="556" y="349" type="line"/>
      <point x="267" y="688" type="line"/>
      <point x="74" y="688" type="line"/>
      <point x="74" y="0" type="line"/>
      <point x="277" y="0" type="line"/>
      <point x="277" y="334" type="line"/>
      <point x="566" y="0" type="line"/>
      <point x="759" y="0" type="line"/>
    </contour>
    <contour>
      <point x="417" y="688" type="move" name="top"/>
    </contour>
    <contour>
      <point x="417" y="0" type="move" name="bottom"/>
    </contour>
  </outline>
</glyph>
<glyph name="Q" format="1">
  <advance width="833"/>
  <unicode hex="0051"/>
  <outline>
    <contour>
      <point x="45" y="112"/>
      <point x="177" y="-8"/>
      <point x="406" y="-12" type="curve"/>
      <point x="512" y="-131" type="line"/>
      <point x="775" y="-131" type="line"/>
      <point x="618" y="28" type="line"/>
      <point x="727" y="82"/>
      <point x="788" y="188"/>
      <point x="788" y="344" type="curve" smooth="yes"/>
      <point x="788" y="579"/>
      <point x="651" y="700"/>
      <point x="416" y="700" type="curve" smooth="yes"/>
      <point x="181" y="700"/>
      <point x="45" y="579"/>
      <point x="45" y="344" type="curve" smooth="yes"/>
    </contour>
    <contour>
      <point x="562" y="312" type="line" smooth="yes"/>
      <point x="562" y="218"/>
      <point x="513" y="153"/>
      <point x="416" y="153" type="curve" smooth="yes"/>
      <point x="319" y="153"/>
      <point x="271" y="218"/>
      <point x="271" y="312" type="curve" smooth="yes"/>
      <point x="271" y="376" type="line" smooth="yes"/>
      <point x="271" y="470"/>
      <point x="319" y="535"/>
      <point x="416" y="535" type="curve" smooth="yes"/>
      <point x="513" y="535"/>
      <point x="562" y="470"/>
      <point x="562" y="376" type="curve" smooth="yes"/>
    </contour>
  </outline>
</glyph>
<glyph name="bracketleft" format="1">
  <advance width="389"/>
  <unicode hex="005B"/>
  <outline>
    <contour>
      <point x="339" y="737" type="line"/>
      <point x="66" y="737" type="line"/>
      <point x="66" y="-160" type="line"/>
      <point x="339" y="-160" type="line"/>
      <point x="339" y="-57" type="line"/>
      <point x="225" y="-57" type="line"/>
      <point x="225" y="634" type="line"/>
      <point x="339" y="634" type="line"/>
    </contour>
  </outline>
</glyph>
<glyph name="m" format="1">
  <advance width="1000"/>
  <unicode hex="006D"/>
  <outline>
    <contour>
      <point x="690" y="540"/>
      <point x="621" y="504"/>
      <point x="580" y="449" type="curve"/>
      <point x="554" y="507"/>
      <point x="501" y="540"/>
      <point x="420" y="540" type="curve" smooth="yes"/>
      <point x="347" y="540"/>
      <point x="276" y="505"/>
      <point x="236" y="449" type="curve"/>
      <point x="223" y="528" type="line"/>
      <point x="60" y="528" type="line"/>
      <point x="60" y="0" type="line"/>
      <point x="259" y="0" type="line"/>
      <point x="259" y="310" type="line" smooth="yes"/>
      <point x="259" y="355"/>
      <point x="290" y="393"/>
      <point x="338" y="393" type="curve" smooth="yes"/>
      <point x="379" y="393"/>
      <point x="401" y="362"/>
      <point x="401" y="318" type="curve" smooth="yes"/>
      <point x="401" y="0" type="line"/>
      <point x="600" y="0" type="line"/>
      <point x="600" y="310" type="line" smooth="yes"/>
      <point x="600" y="355"/>
      <point x="631" y="393"/>
      <point x="679" y="393" type="curve" smooth="yes"/>
      <point x="720" y="393"/>
      <point x="742" y="362"/>
      <point x="742" y="318" type="curve" smooth="yes"/>
      <point x="742" y="0" type="line"/>
      <point x="941" y="0" type="line"/>
      <point x="941" y="342" type="line" smooth="yes"/>
      <point x="941" y="467"/>
      <point x="883" y="540"/>
      <point x="761" y="540" type="curve" smooth="yes"/>
    </contour>
  </outline>
</glyph>
<glyph name="t" format="1">
  <advance width="444"/>
  <unicode hex="0074"/>
  <outline>
    <contour>
      <point x="300" y="688" type="line"/>
      <point x="152" y="688" type="line"/>
      <point x="109" y="528" type="line"/>
      <point x="27" y="528" type="line"/>
      <point x="27" y="393" type="line"/>
      <point x="101" y="393" type="line"/>
      <point x="101" y="129" type="line" smooth="yes"/>
      <point x="101" y="21"/>
      <point x="176" y="-12"/>
      <point x="284" y="-12" type="curve" smooth="yes"/>
      <point x="319" y="-12"/>
      <point x="379" y="-5"/>
      <point x="412" y="6" type="curve"/>
      <point x="412" y="123" type="line"/>
      <point x="356" y="123" type="line" smooth="yes"/>
      <point x="311" y="123"/>
      <point x="300" y="147"/>
      <point x="300" y="192" type="curve" smooth="yes"/>
      <point x="300" y="393" type="line"/>
      <point x="412" y="393" type="line"/>
      <point x="412" y="528" type="line"/>
      <point x="300" y="528" type="line"/>
    </contour>
    <contour>
      <point x="222" y="264" type="move" name="center"/>
    </contour>
    <contour>
      <point x="222" y="0" type="move" name="bottom"/>
    </contour>
  </outline>
</glyph>
<glyph name="braceright" format="1">
  <advance width="389"/>
  <unicode hex="007D"/>
  <outline>
    <contour>
      <point x="40" y="737" type="line"/>
      <point x="40" y="639" type="line"/>
      <point x="68" y="639"/>
      <point x="114" y="635"/>
      <point x="116" y="598" type="curve" smooth="yes"/>
      <point x="126" y="397" type="line" smooth="yes"/>
      <point x="129" y="332"/>
      <point x="160" y="294"/>
      <point x="227" y="294" type="curve"/>
      <point x="227" y="285" type="line"/>
      <point x="160" y="285"/>
      <point x="129" y="247"/>
      <point x="126" y="182" type="curve" smooth="yes"/>
      <point x="116" y="-20" type="line" smooth="yes"/>
      <point x="114" y="-58"/>
      <point x="69" y="-62"/>
      <point x="40" y="-62" type="curve"/>
      <point x="40" y="-160" type="line"/>
      <point x="131" y="-160" type="line" smooth="yes"/>
      <point x="199" y="-160"/>
      <point x="272" y="-125"/>
      <point x="272" y="-48" type="curve" smooth="yes"/>
      <point x="272" y="195" type="line" smooth="yes"/>
      <point x="272" y="235"/>
      <point x="314" y="250"/>
      <point x="359" y="250" type="curve"/>
      <point x="359" y="329" type="line"/>
      <point x="319" y="329"/>
      <point x="272" y="346"/>
      <point x="272" y="386" type="curve" smooth="yes"/>
      <point x="272" y="625" type="line" smooth="yes"/>
      <point x="272" y="702"/>
      <point x="199" y="737"/>
      <point x="131" y="737" type="curve" smooth="yes"/>
    </contour>
  </outline>
</glyph>
<glyph name="exclamdown" format="1">
  <advance width="333"/>
  <unicode hex="00A1"/>
  <outline>
    <contour>
      <point x="229" y="282" type="line"/>
      <point x="102" y="282" type="line"/>
      <point x="47" y="-160" type="line"/>
      <point x="286" y="-160" type="line"/>
    </contour>
    <contour>
      <point x="265" y="528" type="line"/>
      <point x="67" y="528" type="line"/>
      <point x="67" y="343" type="line"/>
      <point x="265" y="343" type="line"/>
    </contour>
  </outline>
</glyph>
<glyph name="cent" format="1">
  <advance width="667"/>
  <unicode hex="00A2"/>
  <outline>
    <contour>
      <point x="392" y="756" type="line"/>
      <point x="279" y="756" type="line"/>
      <point x="286" y="619" type="line"/>
      <point x="133" y="604"/>
      <point x="36" y="513"/>
      <point x="36" y="345" type="curve" smooth="yes"/>
      <point x="36" y="176"/>
      <point x="133" y="86"/>
      <point x="286" y="71" type="curve"/>
      <point x="279" y="-67" type="line"/>
      <point x="392" y="-67" type="line"/>
      <point x="384" y="71" type="line"/>
      <point x="521" y="84"/>
      <point x="624" y="152"/>
      <point x="624" y="296" type="curve"/>
      <point x="439" y="296" type="line"/>
      <point x="439" y="231"/>
      <point x="402" y="204"/>
      <point x="337" y="204" type="curve" smooth="yes"/>
      <point x="264" y="204"/>
      <point x="235" y="246"/>
      <point x="235" y="316" type="curve" smooth="yes"/>
      <point x="235" y="373" type="line" smooth="yes"/>
      <point x="235" y="443"/>
      <point x="263" y="486"/>
      <point x="333" y="486" type="curve" smooth="yes"/>
      <point x="395" y="486"/>
      <point x="431" y="458"/>
      <point x="431" y="396" type="curve"/>
      <point x="624" y="396" type="line"/>
      <point x="624" y="539"/>
      <point x="521" y="605"/>
      <point x="384" y="618" type="curve"/>
    </contour>
  </outline>
</glyph>
<glyph name="yen" format="1">
  <advance width="667"/>
  <unicode hex="00A5"/>
  <outline>
    <contour>
      <point x="665" y="688" type="line"/>
      <point x="448" y="688" type="line"/>
      <point x="342" y="459" type="line"/>
      <point x="338" y="459" type="line"/>
      <point x="232" y="688" type="line"/>
      <point x="2" y="688" type="line"/>
      <point x="129" y="459" type="line"/>
      <point x="32" y="459" type="line"/>
      <point x="32" y="366" type="line"/>
      <point x="180" y="366" type="line"/>
      <point x="207" y="318" type="line"/>
      <point x="32" y="318" type="line"/>
      <point x="32" y="225" type="line"/>
      <point x="235" y="225" type="line"/>
      <point x="235" y="0" type="line"/>
      <point x="436" y="0" type="line"/>
      <point x="436" y="225" type="line"/>
      <point x="638" y="225" type="line"/>
      <point x="638" y="318" type="line"/>
      <point x="463" y="318" type="line"/>
      <point x="489" y="366" type="line"/>
      <point x="638" y="366" type="line"/>
      <point x="638" y="459" type="line"/>
      <point x="540" y="459" type="line"/>
    </contour>
  </outline>
</glyph>
<glyph name="dieresis" format="1">
  <advance width="333"/>
  <unicode hex="00A8"/>
  <outline>
    <contour>
      <point x="352" y="725" type="line"/>
      <point x="200" y="725" type="line"/>
      <point x="200" y="586" type="line"/>
      <point x="352" y="586" type="line"/>
    </contour>
    <contour>
      <point x="132" y="725" type="line"/>
      <point x="-20" y="725" type="line"/>
      <point x="-20" y="586" type="line"/>
      <point x="132" y="586" type="line"/>
    </contour>
    <contour>
      <point x="166" y="528" type="move" name="_top"/>
    </contour>
  </outline>
</glyph>
<glyph name="guillemotleft" format="1">
  <advance width="667"/>
  <unicode hex="00AB"/>
  <outline>
    <contour>
      <point x="606" y="528" type="line"/>
      <point x="463" y="528" type="line"/>
      <point x="296" y="324" type="line"/>
      <point x="463" y="119" type="line"/>
      <point x="606" y="119" type="line"/>
      <point x="468" y="324" type="line"/>
    </contour>
    <contour>
      <point x="370" y="528" type="line"/>
      <point x="227" y="528" type="line"/>
      <point x="60" y="324" type="line"/>
      <point x="227" y="119" type="line"/>
      <point x="370" y="119" type="line"/>
      <point x="232" y="324" type="line"/>
    </contour>
  </outline>
</glyph>
<glyph name="Agrave" format="1">
  <advance width="778"/>
  <unicode hex="00C0"/>
  <outline>
    <contour>
      <point x="769" y="0" type="line"/>
      <point x="518" y="688" type="line"/>
      <point x="261" y="688" type="line"/>
      <point x="10" y="0" type="line"/>
      <point x="236" y="0" type="line"/>
      <point x="265" y="97" type="line"/>
      <point x="506" y="97" type="line"/>
      <point x="535" y="0" type="line"/>
    </contour>
    <contour>
      <point x="384" y="496" type="line"/>
      <point x="388" y="496" type="line"/>
      <point x="460" y="251" type="line"/>
      <point x="311" y="251" type="line"/>
    </contour>
    <contour>
      <point x="485" y="752" type="line"/>
      <point x="393" y="885" type="line"/>
      <point x="200" y="885" type="line"/>
      <point x="198" y="881" type="line"/>
      <point x="358" y="752" type="line"/>
    </contour>
  </outline>
</glyph>
<glyph name="Otilde" format="1">
  <advance width="833"/>
  <unicode hex="00D5"/>
  <outline>
    <contour>
      <point x="181" y="700"/>
      <point x="45" y="579"/>
      <point x="45" y="344" type="curve" smooth="yes"/>
      <point x="45" y="109"/>
      <point x="181" y="-12"/>
      <point x="416" y="-12" type="curve" smooth="yes"/>
      <point x="651" y="-12"/>
      <point x="788" y="109"/>
      <point x="788" y="344" type="curve" smooth="yes"/>
      <point x="788" y="579"/>
      <point x="651" y="700"/>
      <point x="416" y="700" type="curve" smooth="yes"/>
    </contour>
    <contour>
      <point x="513" y="535"/>
      <point x="562" y="470"/>
      <point x="562" y="376" type="curve" smooth="yes"/>
      <point x="562" y="312" type="line" smooth="yes"/>
      <point x="562" y="218"/>
      <point x="513" y="153"/>
      <point x="416" y="153" type="curve" smooth="yes"/>
      <point x="319" y="153"/>
      <point x="271" y="218"/>
      <point x="271" y="312" type="curve" smooth="yes"/>
      <point x="271" y="376" type="line" smooth="yes"/>
      <point x="271" y="470"/>
      <point x="319" y="535"/>
      <point x="416" y="535" type="curve" smooth="yes"/>
    </contour>
    <contour>
      <point x="558" y="885" type="line"/>
      <point x="550" y="862"/>
      <point x="533" y="845"/>
      <point x="507" y="845" type="curve" smooth="yes"/>
      <point x="454" y="845"/>
      <point x="398" y="885"/>
      <point x="334" y="885" type="curve" smooth="yes"/>
      <point x="250" y="885"/>
      <point x="194" y="814"/>
      <point x="194" y="742" type="curve"/>
      <point x="275" y="742" type="line"/>
      <point x="283" y="765"/>
      <point x="300" y="782"/>
      <point x="326" y="782" type="curve" smooth="yes"/>
      <point x="379" y="782"/>
      <point x="435" y="742"/>
      <point x="499" y="742" type="curve" smooth="yes"/>
      <point x="583" y="742"/>
      <point x="639" y="813"/>
      <point x="639" y="885" type="curve"/>
    </contour>
  </outline>
</glyph>
<glyph name="ae" format="1">
  <advance width="1000"/>
  <unicode hex="00E6"/>
  <outline>
    <contour>
      <point x="626" y="540"/>
      <point x="566" y="524"/>
      <point x="518" y="492" type="curve"/>
      <point x="468" y="527"/>
      <point x="396" y="540"/>
      <point x="321" y="540" type="curve" smooth="yes"/>
      <point x="140" y="540"/>
      <point x="45" y="474"/>
      <point x="45" y="377" type="curve" smooth="yes"/>
      <point x="45" y="372"/>
      <point x="45" y="368"/>
      <point x="46" y="363" type="curve"/>
      <point x="242" y="363" type="line"/>
      <point x="242" y="367" type="line" smooth="yes"/>
      <point x="242" y="402"/>
      <point x="285" y="413"/>
      <point x="322" y="413" type="curve" smooth="yes"/>
      <point x="363" y="413"/>
      <point x="395" y="393"/>
      <point x="395" y="350" type="curve" smooth="yes"/>
      <point x="395" y="324" type="line"/>
      <point x="163" y="324"/>
      <point x="30" y="295"/>
      <point x="30" y="146" type="curve" smooth="yes"/>
      <point x="30" y="24"/>
      <point x="117" y="-12"/>
      <point x="256" y="-12" type="curve" smooth="yes"/>
      <point x="350" y="-12"/>
      <point x="421" y="23"/>
      <point x="472" y="61" type="curve"/>
      <point x="525" y="11"/>
      <point x="606" y="-12"/>
      <point x="706" y="-12" type="curve" smooth="yes"/>
      <point x="882" y="-12"/>
      <point x="972" y="66"/>
      <point x="972" y="192" type="curve"/>
      <point x="779" y="192" type="line"/>
      <point x="779" y="149"/>
      <point x="756" y="115"/>
      <point x="692" y="115" type="curve" smooth="yes"/>
      <point x="623" y="115"/>
      <point x="596" y="157"/>
      <point x="596" y="230" type="curve"/>
      <point x="972" y="230" type="line"/>
      <point x="972" y="264" type="line" smooth="yes"/>
      <point x="972" y="454"/>
      <point x="872" y="540"/>
      <point x="694" y="540" type="curve" smooth="yes"/>
    </contour>
    <contour>
      <point x="395" y="185" type="line" smooth="yes"/>
      <point x="395" y="142"/>
      <point x="348" y="112"/>
      <point x="297" y="112" type="curve" smooth="yes"/>
      <point x="263" y="112"/>
      <point x="229" y="121"/>
      <point x="229" y="162" type="curve" smooth="yes"/>
      <point x="229" y="201"/>
      <point x="277" y="230"/>
      <point x="395" y="230" type="curve"/>
    </contour>
    <contour>
      <point x="741" y="413"/>
      <point x="771" y="379"/>
      <point x="771" y="324" type="curve"/>
      <point x="597" y="324" type="line"/>
      <point x="603" y="379"/>
      <point x="630" y="413"/>
      <point x="688" y="413" type="curve" smooth="yes"/>
    </contour>
    <contour>
      <point x="500" y="528" type="move" name="top"/>
    </contour>
  </outline>
</glyph>
<glyph name="Ccircumflex" format="1">
  <advance width="778"/>
  <unicode hex="0108"/>
  <outline>
    <contour>
      <point x="167" y="700"/>
      <point x="45" y="579"/>
      <point x="45" y="344" type="curve" smooth="yes"/>
      <point x="45" y="109"/>
      <point x="167" y="-12"/>
      <point x="402" y="-12" type="curve" smooth="yes"/>
      <point x="612" y="-12"/>
      <point x="733" y="90"/>
      <point x="733" y="279" type="curve"/>
      <point x="529" y="279" type="line"/>
      <point x="529" y="200"/>
      <point x="486" y="153"/>
      <point x="399" y="153" type="curve" smooth="yes"/>
      <point x="309" y="153"/>
      <point x="271" y="218"/>
      <point x="271" y="312" type="curve" smooth="yes"/>
      <point x="271" y="376" type="line" smooth="yes"/>
      <point x="271" y="470"/>
      <point x="307" y="535"/>
      <point x="401" y="535" type="curve" smooth="yes"/>
      <point x="480" y="535"/>
      <point x="522" y="484"/>
      <point x="522" y="405" type="curve"/>
      <point x="733" y="405" type="line"/>
      <point x="733" y="597"/>
      <point x="602" y="700"/>
      <point x="402" y="700" type="curve" smooth="yes"/>
    </contour>
    <contour>
      <point x="453" y="885" type="line"/>
      <point x="325" y="885" type="line"/>
      <point x="186" y="740" type="line"/>
      <point x="314" y="740" type="line"/>
      <point x="388" y="817" type="line"/>
      <point x="462" y="740" type="line"/>
      <point x="592" y="740" type="line"/>
    </contour>
  </outline>
</glyph>
<glyph name="dcaron" format="1">
  <advance width="844"/>
  <unicode hex="010F"/>
  <outline>
    <contour>
      <point x="606" y="725" type="line"/>
      <point x="407" y="725" type="line"/>
      <point x="407" y="479" type="line"/>
      <point x="369" y="520"/>
      <point x="318" y="540"/>
      <point x="259" y="540" type="curve" smooth="yes"/>
      <point x="119" y="540"/>
      <point x="36" y="449"/>
      <point x="36" y="265" type="curve" smooth="yes"/>
      <point x="36" y="79"/>
      <point x="119" y="-12"/>
      <point x="259" y="-12" type="curve" smooth="yes"/>
      <point x="330" y="-12"/>
      <point x="388" y="16"/>
      <point x="427" y="75" type="curve"/>
      <point x="444" y="0" type="line"/>
      <point x="606" y="0" type="line"/>
    </contour>
    <contour>
      <point x="383" y="393"/>
      <point x="409" y="342"/>
      <point x="409" y="280" type="curve" smooth="yes"/>
      <point x="409" y="247" type="line" smooth="yes"/>
      <point x="409" y="185"/>
      <point x="383" y="135"/>
      <point x="321" y="135" type="curve" smooth="yes"/>
      <point x="259" y="135"/>
      <point x="235" y="175"/>
      <point x="235" y="237" type="curve" smooth="yes"/>
      <point x="235" y="290" type="line" smooth="yes"/>
      <point x="235" y="352"/>
      <point x="259" y="393"/>
      <point x="321" y="393" type="curve" smooth="yes"/>
    </contour>
    <contour>
      <point x="785" y="688" type="line"/>
      <point x="655" y="688" type="line"/>
      <point x="655" y="573" type="line"/>
      <point x="705" y="573" type="line"/>
      <point x="664" y="481" type="line"/>
      <point x="731" y="481" type="line"/>
      <point x="785" y="580" type="line"/>
    </contour>
  </outline>
</glyph>
<glyph name="gdotaccent" format="1">
  <advance width="667"/>
  <unicode hex="0121"/>
  <outline>
    <contour>
      <point x="490" y="627" type="line" smooth="yes"/>
      <point x="490" y="627"/>
      <point x="491" y="583"/>
      <point x="412" y="534" type="curve"/>
      <point x="390" y="538"/>
      <point x="365" y="540"/>
      <point x="325" y="540" type="curve" smooth="yes"/>
      <point x="177" y="540"/>
      <point x="53" y="500"/>
      <point x="53" y="369" type="curve" smooth="yes"/>
      <point x="53" y="318"/>
      <point x="90" y="274"/>
      <point x="138" y="243" type="curve"/>
      <point x="82" y="229"/>
      <point x="37" y="183"/>
      <point x="37" y="130" type="curve" smooth="yes"/>
      <point x="37" y="92"/>
      <point x="57" y="59"/>
      <point x="89" y="37" type="curve"/>
      <point x="45" y="17"/>
      <point x="5" y="-26"/>
      <point x="5" y="-81" type="curve" smooth="yes"/>
      <point x="5" y="-154"/>
      <point x="65" y="-210"/>
      <point x="138" y="-210" type="curve" smooth="yes"/>
      <point x="432" y="-210" type="line" smooth="yes"/>
      <point x="550" y="-210"/>
      <point x="654" y="-147"/>
      <point x="654" y="-29" type="curve" smooth="yes"/>
      <point x="654" y="69"/>
      <point x="598" y="140"/>
      <point x="476" y="140" type="curve" smooth="yes"/>
      <point x="296" y="140" type="line" smooth="yes"/>
      <point x="245" y="140"/>
      <point x="233" y="154"/>
      <point x="233" y="171" type="curve" smooth="yes"/>
      <point x="233" y="188"/>
      <point x="250" y="200"/>
      <point x="296" y="200" type="curve" smooth="yes"/>
      <point x="372" y="200" type="line" smooth="yes"/>
      <point x="490" y="200"/>
      <point x="594" y="252"/>
      <point x="594" y="370" type="curve" smooth="yes"/>
      <point x="594" y="414"/>
      <point x="571" y="455"/>
      <point x="532" y="484" type="curve"/>
      <point x="608" y="504"/>
      <point x="654" y="541"/>
      <point x="654" y="627" type="curve"/>
    </contour>
    <contour>
      <point x="402" y="0" type="line" smooth="yes"/>
      <point x="431" y="0"/>
      <point x="455" y="-18"/>
      <point x="455" y="-49" type="curve" smooth="yes"/>
      <point x="455" y="-80"/>
      <point x="431" y="-99"/>
      <point x="402" y="-99" type="curve" smooth="yes"/>
      <point x="246" y="-99" type="line" smooth="yes"/>
      <point x="217" y="-99"/>
      <point x="194" y="-79"/>
      <point x="194" y="-48" type="curve" smooth="yes"/>
      <point x="194" y="-17"/>
      <point x="217" y="0"/>
      <point x="246" y="0" type="curve" smooth="yes"/>
    </contour>
    <contour>
      <point x="370" y="436"/>
      <point x="400" y="415"/>
      <point x="400" y="370" type="curve" smooth="yes"/>
      <point x="400" y="325"/>
      <point x="370" y="304"/>
      <point x="323" y="304" type="curve" smooth="yes"/>
      <point x="276" y="304"/>
      <point x="248" y="325"/>
      <point x="248" y="370" type="curve" smooth="yes"/>
      <point x="248" y="415"/>
      <point x="281" y="436"/>
      <point x="323" y="436" type="curve" smooth="yes"/>
    </contour>
    <contour>
      <point x="379" y="725" type="line"/>
      <point x="227" y="725" type="line"/>
      <point x="227" y="586" type="line"/>
      <point x="379" y="586" type="line"/>
    </contour>
  </outline>
</glyph>
<glyph name="hcircumflex" format="1">
  <advance width="667"/>
  <unicode hex="0125"/>
  <outline>
    <contour>
      <point x="259" y="725" type="line"/>
      <point x="60" y="725" type="line"/>
      <point x="60" y="0" type="line"/>
      <point x="259" y="0" type="line"/>
      <point x="259" y="310" type="line" smooth="yes"/>
      <point x="259" y="355"/>
      <point x="292" y="393"/>
      <point x="342" y="393" type="curve" smooth="yes"/>
      <point x="386" y="393"/>
      <point x="409" y="362"/>
      <point x="409" y="318" type="curve" smooth="yes"/>
      <point x="409" y="0" type="line"/>
      <point x="608" y="0" type="line"/>
      <point x="608" y="342" type="line" smooth="yes"/>
      <point x="608" y="467"/>
      <point x="549" y="540"/>
      <point x="424" y="540" type="curve" smooth="yes"/>
      <point x="361" y="540"/>
      <point x="301" y="515"/>
      <point x="259" y="473" type="curve"/>
    </contour>
    <contour>
      <point x="224" y="885" type="line"/>
      <point x="96" y="885" type="line"/>
      <point x="-43" y="740" type="line"/>
      <point x="84" y="740" type="line"/>
      <point x="159" y="817" type="line"/>
      <point x="233" y="740" type="line"/>
      <point x="363" y="740" type="line"/>
    </contour>
  </outline>
</glyph>
<glyph name="lcaron" format="1">
  <advance width="500"/>
  <unicode hex="013E"/>
  <outline>
    <contour>
      <point x="266" y="725" type="line"/>
      <point x="67" y="725" type="line"/>
      <point x="67" y="0" type="line"/>
      <point x="266" y="0" type="line"/>
    </contour>
    <contour>
      <point x="489" y="688" type="line"/>
      <point x="303" y="688" type="line"/>
      <point x="303" y="513" type="line"/>
      <point x="374" y="513" type="line"/>
      <point x="303" y="331" type="line"/>
      <point x="398" y="331" type="line"/>
      <point x="489" y="523" type="line"/>
    </contour>
  </outline>
</glyph>
<glyph name="ohungarumlaut" format="1">
  <advance width="667"/>
  <unicode hex="0151"/>
  <outline>
    <contour>
      <point x="153" y="540"/>
      <point x="36" y="449"/>
      <point x="36" y="264" type="curve" smooth="yes"/>
      <point x="36" y="79"/>
      <point x="153" y="-12"/>
      <point x="333" y="-12" type="curve" smooth="yes"/>
      <point x="513" y="-12"/>
      <point x="631" y="79"/>
      <point x="631" y="264" type="curve" smooth="yes"/>
      <point x="631" y="449"/>
      <point x="513" y="540"/>
      <point x="333" y="540" type="curve" smooth="yes"/>
    </contour>
    <contour>
      <point x="403" y="405"/>
      <point x="432" y="362"/>
      <point x="432" y="292" type="curve" smooth="yes"/>
      <point x="432" y="235" type="line" smooth="yes"/>
      <point x="432" y="165"/>
      <point x="403" y="123"/>
      <point x="333" y="123" type="curve" smooth="yes"/>
      <point x="263" y="123"/>
      <point x="235" y="165"/>
      <point x="235" y="235" type="curve" smooth="yes"/>
      <point x="235" y="292" type="line" smooth="yes"/>
      <point x="235" y="362"/>
      <point x="263" y="405"/>
      <point x="333" y="405" type="curve" smooth="yes"/>
    </contour>
    <contour>
      <point x="414" y="725" type="line"/>
      <point x="236" y="725" type="line"/>
      <point x="160" y="591" type="line"/>
      <point x="277" y="591" type="line"/>
      <point x="416" y="721" type="line"/>
    </contour>
    <contour>
      <point x="625" y="725" type="line"/>
      <point x="447" y="725" type="line"/>
      <point x="371" y="591" type="line"/>
      <point x="488" y="591" type="line"/>
      <point x="627" y="721" type="line"/>
    </contour>
  </outline>
</glyph>
<glyph name="uring" format="1">
  <advance width="667"/>
  <unicode hex="016F"/>
  <outline>
    <contour>
      <point x="606" y="528" type="line"/>
      <point x="407" y="528" type="line"/>
      <point x="407" y="218" type="line" smooth="yes"/>
      <point x="407" y="173"/>
      <point x="374" y="135"/>
      <point x="324" y="135" type="curve" smooth="yes"/>
      <point x="280" y="135"/>
      <point x="257" y="166"/>
      <point x="257" y="210" type="curve" smooth="yes"/>
      <point x="257" y="528" type="line"/>
      <point x="58" y="528" type="line"/>
      <point x="58" y="186" type="line" smooth="yes"/>
      <point x="58" y="61"/>
      <point x="117" y="-12"/>
      <point x="242" y="-12" type="curve" smooth="yes"/>
      <point x="317" y="-12"/>
      <point x="389" y="23"/>
      <point x="430" y="80" type="curve"/>
      <point x="443" y="0" type="line"/>
      <point x="606" y="0" type="line"/>
    </contour>
    <contour>
      <point x="273" y="794"/>
      <point x="225" y="745"/>
      <point x="225" y="685" type="curve" smooth="yes"/>
      <point x="225" y="625"/>
      <point x="274" y="577"/>
      <point x="333" y="577" type="curve" smooth="yes"/>
      <point x="394" y="577"/>
      <point x="442" y="626"/>
      <point x="442" y="685" type="curve" smooth="yes"/>
      <point x="442" y="746"/>
      <point x="393" y="794"/>
      <point x="333" y="794" type="curve" smooth="yes"/>
    </contour>
    <contour>
      <point x="356" y="725"/>
      <point x="374" y="709"/>
      <point x="374" y="686" type="curve" smooth="yes"/>
      <point x="374" y="662"/>
      <point x="357" y="645"/>
      <point x="333" y="645" type="curve" smooth="yes"/>
      <point x="311" y="645"/>
      <point x="293" y="661"/>
      <point x="293" y="684" type="curve" smooth="yes"/>
      <point x="293" y="708"/>
      <point x="310" y="725"/>
      <point x="333" y="725" type="curve" smooth="yes"/>
    </contour>
  </outline>
</glyph>
<glyph name="Zcaron" format="1">
  <advance width="722"/>
  <unicode hex="017D"/>
  <outline>
    <contour>
      <point x="683" y="688" type="line"/>
      <point x="48" y="688" type="line"/>
      <point x="48" y="523" type="line"/>
      <point x="343" y="523" type="line"/>
      <point x="24" y="71" type="line"/>
      <point x="24" y="0" type="line"/>
      <point x="691" y="0" type="line"/>
      <point x="691" y="165" type="line"/>
      <point x="364" y="165" type="line"/>
      <point x="683" y="617" type="line"/>
    </contour>
    <contour>
      <point x="564" y="885" type="line"/>
      <point x="435" y="885" type="line"/>
      <point x="360" y="808" type="line"/>
      <point x="286" y="885" type="line"/>
      <point x="158" y="885" type="line"/>
      <point x="297" y="740" type="line"/>
      <point x="425" y="740" type="line"/>
    </contour>
  </outline>
</glyph>
<glyph name="dotaccent" format="1">
  <advance width="333"/>
  <unicode hex="02D9"/>
  <outline>
    <contour>
      <point x="243" y="725" type="line"/>
      <point x="91" y="725" type="line"/>
      <point x="91" y="586" type="line"/>
      <point x="243" y="586" type="line"/>
    </contour>
    <contour>
      <point x="167" y="528" type="move" name="_top"/>
    </contour>
  </outline>
</glyph>
<glyph name="Delta" format="1">
  <advance width="778"/>
  <unicode hex="0394"/>
  <outline>
    <contour>
      <point x="26" y="0" type="line"/>
      <point x="756" y="0" type="line"/>
      <point x="756" y="70" type="line"/>
      <point x="521" y="688" type="line"/>
      <point x="260" y="688" type="line"/>
      <point x="26" y="70" type="line"/>
    </contour>
    <contour>
      <point x="385" y="524" type="line"/>
      <point x="389" y="524" type="line"/>
      <point x="500" y="153" type="line"/>
      <point x="268" y="153" type="line"/>
    </contour>
  </outline>
</glyph>
<glyph name="mu" format="1">
  <advance width="667"/>
  <unicode hex="03BC"/>
  <outline>
    <contour>
      <point x="606" y="528" type="line"/>
      <point x="407" y="528" type="line"/>
      <point x="407" y="218" type="line" smooth="yes"/>
      <point x="407" y="173"/>
      <point x="374" y="135"/>
      <point x="324" y="135" type="curve" smooth="yes"/>
      <point x="280" y="135"/>
      <point x="257" y="166"/>
      <point x="257" y="210" type="curve" smooth="yes"/>
      <point x="257" y="528" type="line"/>
      <point x="58" y="528" type="line"/>
      <point x="58" y="-196" type="line"/>
      <point x="257" y="-196" type="line"/>
      <point x="257" y="-11" type="line"/>
      <point x="326" y="-7"/>
      <point x="391" y="27"/>
      <point x="430" y="80" type="curve"/>
      <point x="443" y="0" type="line"/>
      <point x="606" y="0" type="line"/>
    </contour>
  </outline>
</glyph>
<glyph name="Wdieresis" format="1">
  <advance width="1000"/>
  <unicode hex="1E84"/>
  <outline>
    <contour>
      <point x="995" y="688" type="line"/>
      <point x="775" y="688" type="line"/>
      <point x="701" y="298" type="line"/>
      <point x="697" y="298" type="line"/>
      <point x="614" y="688" type="line"/>
      <point x="396" y="688" type="line"/>
      <point x="318" y="298" type="line"/>
      <point x="314" y="298" type="line"/>
      <point x="235" y="688" type="line"/>
      <point x="5" y="688" type="line"/>
      <point x="166" y="0" type="line"/>
      <point x="409" y="0" type="line"/>
      <point x="498" y="419" type="line"/>
      <point x="502" y="419" type="line"/>
      <point x="591" y="0" type="line"/>
      <point x="834" y="0" type="line"/>
    </contour>
    <contour>
      <point x="686" y="885" type="line"/>
      <point x="534" y="885" type="line"/>
      <point x="534" y="746" type="line"/>
      <point x="686" y="746" type="line"/>
    </contour>
    <contour>
      <point x="466" y="885" type="line"/>
      <point x="314" y="885" type="line"/>
      <point x="314" y="746" type="line"/>
      <point x="466" y="746" type="line"/>
    </contour>
  </outline>
</glyph>
<glyph name="uni207F" format="1">
  <advance width="436"/>
  <unicode hex="207F"/>
  <outline>
    <contour>
      <point x="232" y="736"/>
      <point x="185" y="714"/>
      <point x="158" y="681" type="curve"/>
      <point x="149" y="729" type="line"/>
      <point x="43" y="729" type="line"/>
      <point x="43" y="412" type="line"/>
      <point x="173" y="412" type="line"/>
      <point x="173" y="598" type="line" smooth="yes"/>
      <point x="173" y="625"/>
      <point x="195" y="648"/>
      <point x="227" y="648" type="curve" smooth="yes"/>
      <point x="256" y="648"/>
      <point x="271" y="629"/>
      <point x="271" y="603" type="curve" smooth="yes"/>
      <point x="271" y="412" type="line"/>
      <point x="401" y="412" type="line"/>
      <point x="401" y="617" type="line" smooth="yes"/>
      <point x="401" y="692"/>
      <point x="363" y="736"/>
      <point x="281" y="736" type="curve" smooth="yes"/>
    </contour>
  </outline>
</glyph>
<glyph name="estimated" format="1">
  <advance width="600"/>
  <unicode hex="212E"/>
  <outline>
    <contour>
      <point x="142" y="540"/>
      <point x="44" y="424"/>
      <point x="44" y="264" type="curve" smooth="yes"/>
      <point x="44" y="104"/>
      <point x="142" y="-12"/>
      <point x="302" y="-12" type="curve" smooth="yes"/>
      <point x="407" y="-12"/>
      <point x="486" y="38"/>
      <point x="528" y="118" type="curve"/>
      <point x="494" y="140" type="line"/>
      <point x="459" y="72"/>
      <point x="391" y="30"/>
      <point x="302" y="30" type="curve" smooth="yes"/>
      <point x="240" y="30"/>
      <point x="190" y="49"/>
      <point x="153" y="83" type="curve"/>
      <point x="153" y="249" type="line"/>
      <point x="561" y="249" type="line"/>
      <point x="561" y="254" type="line" smooth="yes"/>
      <point x="561" y="420"/>
      <point x="462" y="540"/>
      <point x="302" y="540" type="curve" smooth="yes"/>
    </contour>
    <contour>
      <point x="364" y="498"/>
      <point x="414" y="478"/>
      <point x="452" y="443" type="curve"/>
      <point x="452" y="291" type="line"/>
      <point x="153" y="291" type="line"/>
      <point x="153" y="444" type="line"/>
      <point x="190" y="478"/>
      <point x="240" y="498"/>
      <point x="302" y="498" type="curve" smooth="yes"/>
    </contour>
  </outline>
</glyph>
<glyph name="threeeighths" format="1">
  <advance width="1000"/>
  <unicode hex="215C"/>
  <outline>
    <contour>
      <point x="819" y="167"/>
      <point x="849" y="150"/>
      <point x="849" y="118" type="curve" smooth="yes"/>
      <point x="849" y="85"/>
      <point x="822" y="69"/>
      <point x="787" y="69" type="curve" smooth="yes"/>
      <point x="751" y="69"/>
      <point x="726" y="85"/>
      <point x="726" y="118" type="curve" smooth="yes"/>
      <point x="726" y="150"/>
      <point x="754" y="167"/>
      <point x="787" y="167" type="curve" smooth="yes"/>
    </contour>
    <contour>
      <point x="689" y="414"/>
      <point x="612" y="371"/>
      <point x="612" y="293" type="curve" smooth="yes"/>
      <point x="612" y="246"/>
      <point x="636" y="227"/>
      <point x="667" y="207" type="curve"/>
      <point x="667" y="202" type="line"/>
      <point x="624" y="180"/>
      <point x="596" y="157"/>
      <point x="596" y="108" type="curve" smooth="yes"/>
      <point x="596" y="30"/>
      <point x="670" y="-12"/>
      <point x="787" y="-12" type="curve" smooth="yes"/>
      <point x="903" y="-12"/>
      <point x="979" y="30"/>
      <point x="979" y="108" type="curve" smooth="yes"/>
      <point x="979" y="157"/>
      <point x="951" y="180"/>
      <point x="907" y="202" type="curve"/>
      <point x="907" y="207" type="line"/>
      <point x="939" y="227"/>
      <point x="962" y="246"/>
      <point x="962" y="293" type="curve" smooth="yes"/>
      <point x="962" y="371"/>
      <point x="884" y="414"/>
      <point x="787" y="414" type="curve" smooth="yes"/>
    </contour>
    <contour>
      <point x="822" y="333"/>
      <point x="849" y="320"/>
      <point x="849" y="288" type="curve" smooth="yes"/>
      <point x="849" y="255"/>
      <point x="819" y="243"/>
      <point x="787" y="243" type="curve" smooth="yes"/>
      <point x="754" y="243"/>
      <point x="726" y="255"/>
      <point x="726" y="288" type="curve" smooth="yes"/>
      <point x="726" y="320"/>
      <point x="751" y="333"/>
      <point x="787" y="333" type="curve" smooth="yes"/>
    </contour>
    <contour>
      <point x="767" y="700" type="line"/>
      <point x="671" y="700" type="line"/>
      <point x="261" y="-12" type="line"/>
      <point x="356" y="-12" type="line"/>
    </contour>
    <contour>
      <point x="112" y="701"/>
      <point x="47" y="650"/>
      <point x="47" y="589" type="curve" smooth="yes"/>
      <point x="47" y="574" type="line"/>
      <point x="156" y="574" type="line"/>
      <point x="156" y="598"/>
      <point x="177" y="619"/>
      <point x="216" y="619" type="curve" smooth="yes"/>
      <point x="253" y="619"/>
      <point x="274" y="596"/>
      <point x="274" y="572" type="curve" smooth="yes"/>
      <point x="274" y="542"/>
      <point x="253" y="529"/>
      <point x="228" y="529" type="curve" smooth="yes"/>
      <point x="190" y="529" type="line"/>
      <point x="190" y="455" type="line"/>
      <point x="238" y="455" type="line" smooth="yes"/>
      <point x="264" y="455"/>
      <point x="284" y="441"/>
      <point x="284" y="412" type="curve" smooth="yes"/>
      <point x="284" y="380"/>
      <point x="266" y="357"/>
      <point x="216" y="357" type="curve" smooth="yes"/>
      <point x="163" y="357"/>
      <point x="148" y="379"/>
      <point x="148" y="406" type="curve"/>
      <point x="32" y="406" type="line"/>
      <point x="32" y="393" type="line" smooth="yes"/>
      <point x="32" y="328"/>
      <point x="93" y="275"/>
      <point x="224" y="275" type="curve" smooth="yes"/>
      <point x="354" y="275"/>
      <point x="415" y="328"/>
      <point x="415" y="394" type="curve" smooth="yes"/>
      <point x="415" y="444"/>
      <point x="386" y="480"/>
      <point x="336" y="495" type="curve"/>
      <point x="336" y="499" type="line"/>
      <point x="375" y="512"/>
      <point x="402" y="548"/>
      <point x="402" y="589" type="curve" smooth="yes"/>
      <point x="402" y="650"/>
      <point x="339" y="701"/>
      <point x="227" y="701" type="curve" smooth="yes"/>
    </contour>
  </outline>
</glyph>
<glyph name="radical" format="1">
  <advance width="549"/>
  <unicode hex="221A"/>
  <outline>
    <contour>
      <point x="599" y="842" type="line"/>
      <point x="493" y="842" type="line"/>
      <point x="343" y="117" type="line" smooth="yes"/>
      <point x="335" y="81"/>
      <point x="330" y="47"/>
      <point x="327" y="22" type="curve"/>
      <point x="321" y="22" type="line"/>
      <point x="314" y="48"/>
      <point x="306" y="81"/>
      <point x="295" y="111" type="curve" smooth="yes"/>
      <point x="179" y="424" type="line"/>
      <point x="-33" y="337" type="line"/>
      <point x="-5" y="252" type="line"/>
      <point x="78" y="285" type="line"/>
      <point x="252" y="-146" type="line"/>
      <point x="388" y="-146" type="line"/>
    </contour>
  </outline>
</glyph>
<glyph name="approxequal" format="1">
  <advance width="660"/>
  <unicode hex="2248"/>
  <outline>
    <contour>
      <point x="621" y="497" type="line"/>
      <point x="621" y="497"/>
      <point x="551" y="417"/>
      <point x="453" y="417" type="curve" smooth="yes"/>
      <point x="408" y="417"/>
      <point x="368" y="434"/>
      <point x="329" y="451" type="curve" smooth="yes"/>
      <point x="290" y="468"/>
      <point x="251" y="485"/>
      <point x="207" y="485" type="curve" smooth="yes"/>
      <point x="109" y="485"/>
      <point x="39" y="405"/>
      <point x="39" y="405" type="curve"/>
      <point x="39" y="275" type="line"/>
      <point x="39" y="275"/>
      <point x="109" y="355"/>
      <point x="207" y="355" type="curve" smooth="yes"/>
      <point x="253" y="355"/>
      <point x="292" y="338"/>
      <point x="331" y="321" type="curve" smooth="yes"/>
      <point x="370" y="304"/>
      <point x="409" y="287"/>
      <point x="453" y="287" type="curve" smooth="yes"/>
      <point x="551" y="287"/>
      <point x="621" y="367"/>
      <point x="621" y="367" type="curve"/>
    </contour>
    <contour>
      <point x="621" y="263" type="line"/>
      <point x="621" y="263"/>
      <point x="551" y="183"/>
      <point x="453" y="183" type="curve" smooth="yes"/>
      <point x="408" y="183"/>
      <point x="368" y="200"/>
      <point x="329" y="217" type="curve" smooth="yes"/>
      <point x="290" y="234"/>
      <point x="251" y="251"/>
      <point x="207" y="251" type="curve" smooth="yes"/>
      <point x="109" y="251"/>
      <point x="39" y="171"/>
      <point x="39" y="171" type="curve"/>
      <point x="39" y="41" type="line"/>
      <point x="39" y="41"/>
      <point x="109" y="121"/>
      <point x="207" y="121" type="curve" smooth="yes"/>
      <point x="253" y="121"/>
      <point x="292" y="104"/>
      <point x="331" y="87" type="curve" smooth="yes"/>
      <point x="370" y="70"/>
      <point x="409" y="53"/>
      <point x="453" y="53" type="curve" smooth="yes"/>
      <point x="551" y="53"/>
      <point x="621" y="133"/>
      <point x="621" y="133" type="curve"/>
    </contour>
  </outline>
</glyph>
<glyph name="equivalence" format="1">
  <advance width="600"/>
  <unicode hex="2261"/>
  <outline>
    <contour>
      <point x="537" y="506" type="line"/>
      <point x="62" y="506" type="line"/>
      <point x="62" y="394" type="line"/>
      <point x="537" y="394" type="line"/>
    </contour>
    <contour>
      <point x="537" y="134" type="line"/>
      <point x="62" y="134" type="line"/>
      <point x="62" y="22" type="line"/>
      <point x="537" y="22" type="line"/>
    </contour>
    <contour>
      <point x="537" y="320" type="line"/>
      <point x="62" y="320" type="line"/>
      <point x="62" y="208" type="line"/>
      <point x="537" y="208" type="line"/>
    </contour>
  </outline>
</glyph>
<glyph name="lessequal" format="1">
  <advance width="660"/>
  <unicode hex="2264"/>
  <outline>
    <contour>
      <point x="594" y="675" type="line"/>
      <point x="66" y="490" type="line"/>
      <point x="66" y="347" type="line"/>
      <point x="594" y="163" type="line"/>
      <point x="594" y="305" type="line"/>
      <point x="222" y="418" type="line"/>
      <point x="594" y="532" type="line"/>
    </contour>
    <contour>
      <point x="594" y="132" type="line"/>
      <point x="66" y="132" type="line"/>
      <point x="66" y="0" type="line"/>
      <point x="594" y="0" type="line"/>
    </contour>
  </outline>
</glyph>
